<?xml version="1.0" encoding="UTF-8" standalone="no"?>
<!DOCTYPE svg PUBLIC "-//W3C//DTD SVG 1.1//EN"
 "http://www.w3.org/Graphics/SVG/1.1/DTD/svg11.dtd">
<!-- Generated by graphviz version 2.50.0 (0)
 -->
<!-- Title: CPS::MNAInterface Pages: 1 -->
<svg width="805pt" height="1755pt"
 viewBox="0.00 0.00 805.00 1755.00" xmlns="http://www.w3.org/2000/svg" xmlns:xlink="http://www.w3.org/1999/xlink">
<g id="graph0" class="graph" transform="scale(1 1) rotate(0) translate(4 1751)">
<title>CPS::MNAInterface</title>
<!-- Node1 -->
<g id="node1" class="node">
<title>Node1</title>
<g id="a_node1"><a xlink:title="Interface to be implemented by all models used by the MNA solver.">
<polygon fill="#bfbfbf" stroke="black" points="0,-858.5 0,-877.5 107,-877.5 107,-858.5 0,-858.5"/>
<text text-anchor="middle" x="53.5" y="-865.5" font-family="Helvetica,sans-Serif" font-size="10.00">CPS::MNAInterface</text>
</a>
</g>
</g>
<!-- Node2 -->
<g id="node2" class="node">
<title>Node2</title>
<g id="a_node2"><a xlink:href="class_c_p_s_1_1_m_n_a_sim_power_comp.html" target="_top" xlink:title=" ">
<polygon fill="none" stroke="black" points="433,-1091 433,-1121 570,-1121 570,-1091 433,-1091"/>
<text text-anchor="start" x="441" y="-1109" font-family="Helvetica,sans-Serif" font-size="10.00">CPS::MNASimPowerComp</text>
<text text-anchor="middle" x="501.5" y="-1098" font-family="Helvetica,sans-Serif" font-size="10.00">&lt; Complex &gt;</text>
</a>
</g>
</g>
<!-- Node1&#45;&gt;Node2 -->
<g id="edge1" class="edge">
<title>Node1&#45;&gt;Node2</title>
<path fill="none" stroke="midnightblue" d="M81.4,-882.35C160.41,-924.52 391.32,-1047.74 472.15,-1090.87"/>
<polygon fill="midnightblue" stroke="midnightblue" points="83.01,-879.24 72.54,-877.62 79.71,-885.42 83.01,-879.24"/>
</g>
<!-- Node71 -->
<g id="node34" class="node">
<title>Node71</title>
<g id="a_node34"><a xlink:href="class_c_p_s_1_1_m_n_a_sim_power_comp.html" target="_top" xlink:title=" ">
<polygon fill="none" stroke="red" points="433,-278 433,-308 570,-308 570,-278 433,-278"/>
<text text-anchor="start" x="441" y="-296" font-family="Helvetica,sans-Serif" font-size="10.00">CPS::MNASimPowerComp</text>
<text text-anchor="middle" x="501.5" y="-285" font-family="Helvetica,sans-Serif" font-size="10.00">&lt; Real &gt;</text>
</a>
</g>
</g>
<!-- Node1&#45;&gt;Node71 -->
<g id="edge33" class="edge">
<title>Node1&#45;&gt;Node71</title>
<path fill="none" stroke="midnightblue" d="M68.08,-850.49C134.75,-764.54 426.67,-388.18 488.83,-308.04"/>
<polygon fill="midnightblue" stroke="midnightblue" points="65.23,-848.45 61.87,-858.5 70.76,-852.74 65.23,-848.45"/>
</g>
<!-- Node115 -->
<g id="node48" class="node">
<title>Node115</title>
<g id="a_node48"><a xlink:href="class_c_p_s_1_1_d_p_1_1_ph3_1_1_synchron_generator_v_b_r.html" target="_top" xlink:title=" ">
<polygon fill="none" stroke="black" points="144,-836.5 144,-855.5 338,-855.5 338,-836.5 144,-836.5"/>
<text text-anchor="middle" x="241" y="-843.5" font-family="Helvetica,sans-Serif" font-size="10.00">CPS::DP::Ph3::SynchronGeneratorVBR</text>
</a>
</g>
</g>
<!-- Node1&#45;&gt;Node115 -->
<g id="edge47" class="edge">
<title>Node1&#45;&gt;Node115</title>
<path fill="none" stroke="midnightblue" d="M117.38,-860.54C131.02,-858.92 145.63,-857.19 159.83,-855.51"/>
<polygon fill="midnightblue" stroke="midnightblue" points="116.68,-857.1 107.16,-861.75 117.5,-864.05 116.68,-857.1"/>
</g>
<!-- Node116 -->
<g id="node49" class="node">
<title>Node116</title>
<g id="a_node49"><a xlink:href="class_c_p_s_1_1_m_n_a_sim_power_comp.html" target="_top" xlink:title="Base class for all MNA components that are transmitting power.">
<polygon fill="none" stroke="red" points="172.5,-875 172.5,-905 309.5,-905 309.5,-875 172.5,-875"/>
<text text-anchor="start" x="180.5" y="-893" font-family="Helvetica,sans-Serif" font-size="10.00">CPS::MNASimPowerComp</text>
<text text-anchor="middle" x="241" y="-882" font-family="Helvetica,sans-Serif" font-size="10.00">&lt; VarType &gt;</text>
</a>
</g>
</g>
<!-- Node1&#45;&gt;Node116 -->
<g id="edge48" class="edge">
<title>Node1&#45;&gt;Node116</title>
<path fill="none" stroke="midnightblue" d="M117.36,-875.45C135.03,-877.55 154.33,-879.84 172.27,-881.97"/>
<polygon fill="midnightblue" stroke="midnightblue" points="117.5,-871.95 107.16,-874.25 116.68,-878.9 117.5,-871.95"/>
</g>
<!-- Node3 -->
<g id="node3" class="node">
<title>Node3</title>
<g id="a_node3"><a xlink:href="class_c_p_s_1_1_base_1_1_reduced_order_synchron_generator.html" target="_top" xlink:title=" ">
<polygon fill="none" stroke="red" points="612.5,-1222 612.5,-1252 791.5,-1252 791.5,-1222 612.5,-1222"/>
<text text-anchor="start" x="620.5" y="-1240" font-family="Helvetica,sans-Serif" font-size="10.00">CPS::Base::ReducedOrderSynchron</text>
<text text-anchor="middle" x="702" y="-1229" font-family="Helvetica,sans-Serif" font-size="10.00">Generator&lt; Complex &gt;</text>
</a>
</g>
</g>
<!-- Node2&#45;&gt;Node3 -->
<g id="edge2" class="edge">
<title>Node2&#45;&gt;Node3</title>
<path fill="none" stroke="midnightblue" d="M519.1,-1129.41C537.73,-1153.92 570.19,-1191.75 607,-1213 612.98,-1216.45 619.46,-1219.42 626.12,-1221.96"/>
<polygon fill="midnightblue" stroke="midnightblue" points="521.88,-1127.28 513.11,-1121.34 516.26,-1131.46 521.88,-1127.28"/>
</g>
<!-- Node20 -->
<g id="node4" class="node">
<title>Node20</title>
<g id="a_node4"><a xlink:href="class_c_p_s_1_1_composite_power_comp.html" target="_top" xlink:title=" ">
<polygon fill="none" stroke="red" points="629,-1173 629,-1203 775,-1203 775,-1173 629,-1173"/>
<text text-anchor="start" x="637" y="-1191" font-family="Helvetica,sans-Serif" font-size="10.00">CPS::CompositePowerComp</text>
<text text-anchor="middle" x="702" y="-1180" font-family="Helvetica,sans-Serif" font-size="10.00">&lt; Complex &gt;</text>
</a>
</g>
</g>
<!-- Node2&#45;&gt;Node20 -->
<g id="edge3" class="edge">
<title>Node2&#45;&gt;Node20</title>
<path fill="none" stroke="midnightblue" d="M534.95,-1126.34C555.1,-1138.29 581.87,-1152.97 607,-1163 616.25,-1166.69 626.24,-1170.01 636.12,-1172.93"/>
<polygon fill="midnightblue" stroke="midnightblue" points="536.56,-1123.22 526.19,-1121.06 532.96,-1129.22 536.56,-1123.22"/>
</g>
<!-- Node40 -->
<g id="node5" class="node">
<title>Node40</title>
<g id="a_node5"><a xlink:href="class_c_p_s_1_1_d_p_1_1_ph1_1_1_capacitor.html" target="_top" xlink:title="Capacitor model.">
<polygon fill="none" stroke="black" points="638.5,-1134.5 638.5,-1153.5 765.5,-1153.5 765.5,-1134.5 638.5,-1134.5"/>
<text text-anchor="middle" x="702" y="-1141.5" font-family="Helvetica,sans-Serif" font-size="10.00">CPS::DP::Ph1::Capacitor</text>
</a>
</g>
</g>
<!-- Node2&#45;&gt;Node40 -->
<g id="edge4" class="edge">
<title>Node2&#45;&gt;Node40</title>
<path fill="none" stroke="midnightblue" d="M580.34,-1120.9C604.14,-1125.46 629.67,-1130.35 651.09,-1134.45"/>
<polygon fill="midnightblue" stroke="midnightblue" points="580.74,-1117.41 570.26,-1118.97 579.42,-1124.29 580.74,-1117.41"/>
</g>
<!-- Node41 -->
<g id="node6" class="node">
<title>Node41</title>
<g id="a_node6"><a xlink:href="class_c_p_s_1_1_d_p_1_1_ph1_1_1_current_source.html" target="_top" xlink:title="Dynamic phasor ideal current source.">
<polygon fill="none" stroke="black" points="626.5,-1096.5 626.5,-1115.5 777.5,-1115.5 777.5,-1096.5 626.5,-1096.5"/>
<text text-anchor="middle" x="702" y="-1103.5" font-family="Helvetica,sans-Serif" font-size="10.00">CPS::DP::Ph1::CurrentSource</text>
</a>
</g>
</g>
<!-- Node2&#45;&gt;Node41 -->
<g id="edge5" class="edge">
<title>Node2&#45;&gt;Node41</title>
<path fill="none" stroke="midnightblue" d="M580.57,-1106C595.66,-1106 611.43,-1106 626.41,-1106"/>
<polygon fill="midnightblue" stroke="midnightblue" points="580.26,-1102.5 570.26,-1106 580.26,-1109.5 580.26,-1102.5"/>
</g>
<!-- Node42 -->
<g id="node7" class="node">
<title>Node42</title>
<g id="a_node7"><a xlink:href="class_c_p_s_1_1_d_p_1_1_ph1_1_1_inductor.html" target="_top" xlink:title="Inductor.">
<polygon fill="none" stroke="black" points="640,-1058.5 640,-1077.5 764,-1077.5 764,-1058.5 640,-1058.5"/>
<text text-anchor="middle" x="702" y="-1065.5" font-family="Helvetica,sans-Serif" font-size="10.00">CPS::DP::Ph1::Inductor</text>
</a>
</g>
</g>
<!-- Node2&#45;&gt;Node42 -->
<g id="edge6" class="edge">
<title>Node2&#45;&gt;Node42</title>
<path fill="none" stroke="midnightblue" d="M580.34,-1091.1C604.14,-1086.54 629.67,-1081.65 651.09,-1077.55"/>
<polygon fill="midnightblue" stroke="midnightblue" points="579.42,-1087.71 570.26,-1093.03 580.74,-1094.59 579.42,-1087.71"/>
</g>
<!-- Node43 -->
<g id="node8" class="node">
<title>Node43</title>
<g id="a_node8"><a xlink:href="class_c_p_s_1_1_d_p_1_1_ph1_1_1_inverter.html" target="_top" xlink:title="Single phase inverter model.">
<polygon fill="none" stroke="black" points="640.5,-1020.5 640.5,-1039.5 763.5,-1039.5 763.5,-1020.5 640.5,-1020.5"/>
<text text-anchor="middle" x="702" y="-1027.5" font-family="Helvetica,sans-Serif" font-size="10.00">CPS::DP::Ph1::Inverter</text>
</a>
</g>
</g>
<!-- Node2&#45;&gt;Node43 -->
<g id="edge7" class="edge">
<title>Node2&#45;&gt;Node43</title>
<path fill="none" stroke="midnightblue" d="M533.95,-1085.6C554.11,-1073.35 581.24,-1058.39 607,-1049 617.56,-1045.15 629.09,-1042.01 640.33,-1039.48"/>
<polygon fill="midnightblue" stroke="midnightblue" points="531.88,-1082.76 525.21,-1091 535.56,-1088.72 531.88,-1082.76"/>
</g>
<!-- Node44 -->
<g id="node9" class="node">
<title>Node44</title>
<g id="a_node9"><a xlink:href="class_c_p_s_1_1_d_p_1_1_ph1_1_1_profile_voltage_source.html" target="_top" xlink:title=" ">
<polygon fill="none" stroke="black" points="627.5,-971 627.5,-1001 776.5,-1001 776.5,-971 627.5,-971"/>
<text text-anchor="start" x="635.5" y="-989" font-family="Helvetica,sans-Serif" font-size="10.00">CPS::DP::Ph1::ProfileVoltage</text>
<text text-anchor="middle" x="702" y="-978" font-family="Helvetica,sans-Serif" font-size="10.00">Source</text>
</a>
</g>
</g>
<!-- Node2&#45;&gt;Node44 -->
<g id="edge8" class="edge">
<title>Node2&#45;&gt;Node44</title>
<path fill="none" stroke="midnightblue" d="M521.82,-1082.97C541.21,-1061.31 573.02,-1029.52 607,-1011 614.12,-1007.12 621.87,-1003.82 629.77,-1001.01"/>
<polygon fill="midnightblue" stroke="midnightblue" points="518.98,-1080.91 515.02,-1090.73 524.24,-1085.52 518.98,-1080.91"/>
</g>
<!-- Node45 -->
<g id="node10" class="node">
<title>Node45</title>
<g id="a_node10"><a xlink:href="class_c_p_s_1_1_d_p_1_1_ph1_1_1_res_ind_series.html" target="_top" xlink:title="resistor inductor series element">
<polygon fill="none" stroke="black" points="630,-932.5 630,-951.5 774,-951.5 774,-932.5 630,-932.5"/>
<text text-anchor="middle" x="702" y="-939.5" font-family="Helvetica,sans-Serif" font-size="10.00">CPS::DP::Ph1::ResIndSeries</text>
</a>
</g>
</g>
<!-- Node2&#45;&gt;Node45 -->
<g id="edge9" class="edge">
<title>Node2&#45;&gt;Node45</title>
<path fill="none" stroke="midnightblue" d="M513.19,-1081.68C528.85,-1049.04 561.23,-991.75 607,-962 613.99,-957.45 621.84,-953.92 629.94,-951.18"/>
<polygon fill="midnightblue" stroke="midnightblue" points="509.92,-1080.42 508.87,-1090.96 516.26,-1083.37 509.92,-1080.42"/>
</g>
<!-- Node46 -->
<g id="node11" class="node">
<title>Node46</title>
<g id="a_node11"><a xlink:href="class_c_p_s_1_1_d_p_1_1_ph1_1_1_resistor.html" target="_top" xlink:title="Dynamic phasor resistor model.">
<polygon fill="none" stroke="black" points="641.5,-894.5 641.5,-913.5 762.5,-913.5 762.5,-894.5 641.5,-894.5"/>
<text text-anchor="middle" x="702" y="-901.5" font-family="Helvetica,sans-Serif" font-size="10.00">CPS::DP::Ph1::Resistor</text>
</a>
</g>
</g>
<!-- Node2&#45;&gt;Node46 -->
<g id="edge10" class="edge">
<title>Node2&#45;&gt;Node46</title>
<path fill="none" stroke="midnightblue" d="M509.41,-1081.01C521.86,-1040.92 552.01,-962.73 607,-923 616.99,-915.78 629.05,-911.15 641.16,-908.21"/>
<polygon fill="midnightblue" stroke="midnightblue" points="506,-1080.2 506.49,-1090.79 512.7,-1082.2 506,-1080.2"/>
</g>
<!-- Node47 -->
<g id="node12" class="node">
<title>Node47</title>
<g id="a_node12"><a xlink:href="class_c_p_s_1_1_d_p_1_1_ph1_1_1_s_v_c.html" target="_top" xlink:title="SVC.">
<polygon fill="none" stroke="black" points="651.5,-856.5 651.5,-875.5 752.5,-875.5 752.5,-856.5 651.5,-856.5"/>
<text text-anchor="middle" x="702" y="-863.5" font-family="Helvetica,sans-Serif" font-size="10.00">CPS::DP::Ph1::SVC</text>
</a>
</g>
</g>
<!-- Node2&#45;&gt;Node47 -->
<g id="edge11" class="edge">
<title>Node2&#45;&gt;Node47</title>
<path fill="none" stroke="midnightblue" d="M506.79,-1080.92C516.13,-1034.47 542.83,-935.25 607,-885 619.58,-875.15 635.95,-870.01 651.49,-867.44"/>
<polygon fill="midnightblue" stroke="midnightblue" points="503.35,-1080.28 504.92,-1090.76 510.23,-1081.59 503.35,-1080.28"/>
</g>
<!-- Node48 -->
<g id="node13" class="node">
<title>Node48</title>
<g id="a_node13"><a xlink:href="class_c_p_s_1_1_d_p_1_1_ph1_1_1_switch.html" target="_top" xlink:title="Dynamic phasor switch.">
<polygon fill="none" stroke="black" points="645.5,-818.5 645.5,-837.5 758.5,-837.5 758.5,-818.5 645.5,-818.5"/>
<text text-anchor="middle" x="702" y="-825.5" font-family="Helvetica,sans-Serif" font-size="10.00">CPS::DP::Ph1::Switch</text>
</a>
</g>
</g>
<!-- Node2&#45;&gt;Node48 -->
<g id="edge12" class="edge">
<title>Node2&#45;&gt;Node48</title>
<path fill="none" stroke="midnightblue" d="M504.89,-1080.79C511.26,-1028.5 533.54,-908.05 607,-847 617.76,-838.06 631.57,-832.94 645.29,-830.1"/>
<polygon fill="midnightblue" stroke="midnightblue" points="501.39,-1080.54 503.76,-1090.87 508.35,-1081.32 501.39,-1080.54"/>
</g>
<!-- Node49 -->
<g id="node14" class="node">
<title>Node49</title>
<g id="a_node14"><a xlink:href="class_c_p_s_1_1_d_p_1_1_ph1_1_1_voltage_source.html" target="_top" xlink:title="Ideal Voltage source model.">
<polygon fill="none" stroke="black" points="627,-780.5 627,-799.5 777,-799.5 777,-780.5 627,-780.5"/>
<text text-anchor="middle" x="702" y="-787.5" font-family="Helvetica,sans-Serif" font-size="10.00">CPS::DP::Ph1::VoltageSource</text>
</a>
</g>
</g>
<!-- Node2&#45;&gt;Node49 -->
<g id="edge13" class="edge">
<title>Node2&#45;&gt;Node49</title>
<path fill="none" stroke="midnightblue" d="M503.39,-1080.75C506.86,-1023.03 523.88,-880.88 607,-809 612.79,-803.99 619.54,-800.17 626.71,-797.27"/>
<polygon fill="midnightblue" stroke="midnightblue" points="499.89,-1080.65 502.87,-1090.82 506.88,-1081.01 499.89,-1080.65"/>
</g>
<!-- Node50 -->
<g id="node15" class="node">
<title>Node50</title>
<g id="a_node15"><a xlink:href="class_c_p_s_1_1_d_p_1_1_ph1_1_1_voltage_source_norton.html" target="_top" xlink:title="Resistive dynamic phasor voltage source.">
<polygon fill="none" stroke="black" points="627,-731 627,-761 777,-761 777,-731 627,-731"/>
<text text-anchor="start" x="635" y="-749" font-family="Helvetica,sans-Serif" font-size="10.00">CPS::DP::Ph1::VoltageSource</text>
<text text-anchor="middle" x="702" y="-738" font-family="Helvetica,sans-Serif" font-size="10.00">Norton</text>
</a>
</g>
</g>
<!-- Node2&#45;&gt;Node50 -->
<g id="edge14" class="edge">
<title>Node2&#45;&gt;Node50</title>
<path fill="none" stroke="midnightblue" d="M502.35,-1080.78C503.44,-1018.27 515.39,-855.2 607,-771 612.72,-765.74 619.42,-761.57 626.56,-758.26"/>
<polygon fill="midnightblue" stroke="midnightblue" points="498.85,-1080.88 502.26,-1090.91 505.85,-1080.94 498.85,-1080.88"/>
</g>
<!-- Node51 -->
<g id="node16" class="node">
<title>Node51</title>
<g id="a_node16"><a xlink:href="class_c_p_s_1_1_d_p_1_1_ph1_1_1var_res_switch.html" target="_top" xlink:title="Switch with variable resistance to avoid numerical oscillations, when an inductive current is suddenl...">
<polygon fill="none" stroke="black" points="630,-692.5 630,-711.5 774,-711.5 774,-692.5 630,-692.5"/>
<text text-anchor="middle" x="702" y="-699.5" font-family="Helvetica,sans-Serif" font-size="10.00">CPS::DP::Ph1::varResSwitch</text>
</a>
</g>
</g>
<!-- Node2&#45;&gt;Node51 -->
<g id="edge15" class="edge">
<title>Node2&#45;&gt;Node51</title>
<path fill="none" stroke="midnightblue" d="M505.91,-1080.28C516.76,-1002.29 553.01,-770.79 607,-721 613.49,-715.02 621.32,-710.7 629.66,-707.61"/>
<polygon fill="midnightblue" stroke="midnightblue" points="502.38,-1080.25 504.49,-1090.63 509.31,-1081.2 502.38,-1080.25"/>
</g>
<!-- Node52 -->
<g id="node17" class="node">
<title>Node52</title>
<g id="a_node17"><a xlink:href="class_c_p_s_1_1_d_p_1_1_ph3_1_1_capacitor.html" target="_top" xlink:title="Capacitor model.">
<polygon fill="none" stroke="black" points="638.5,-654.5 638.5,-673.5 765.5,-673.5 765.5,-654.5 638.5,-654.5"/>
<text text-anchor="middle" x="702" y="-661.5" font-family="Helvetica,sans-Serif" font-size="10.00">CPS::DP::Ph3::Capacitor</text>
</a>
</g>
</g>
<!-- Node2&#45;&gt;Node52 -->
<g id="edge16" class="edge">
<title>Node2&#45;&gt;Node52</title>
<path fill="none" stroke="midnightblue" d="M505.05,-1080.94C513.96,-998.41 546.54,-737.3 607,-683 615.79,-675.1 626.94,-670.12 638.46,-667.05"/>
<polygon fill="midnightblue" stroke="midnightblue" points="501.56,-1080.63 503.99,-1090.94 508.52,-1081.36 501.56,-1080.63"/>
</g>
<!-- Node53 -->
<g id="node18" class="node">
<title>Node53</title>
<g id="a_node18"><a xlink:href="class_c_p_s_1_1_d_p_1_1_ph3_1_1_inductor.html" target="_top" xlink:title="Inductor.">
<polygon fill="none" stroke="black" points="640,-616.5 640,-635.5 764,-635.5 764,-616.5 640,-616.5"/>
<text text-anchor="middle" x="702" y="-623.5" font-family="Helvetica,sans-Serif" font-size="10.00">CPS::DP::Ph3::Inductor</text>
</a>
</g>
</g>
<!-- Node2&#45;&gt;Node53 -->
<g id="edge17" class="edge">
<title>Node2&#45;&gt;Node53</title>
<path fill="none" stroke="midnightblue" d="M504.49,-1080.39C511.89,-992.32 540.84,-704.13 607,-645 616.19,-636.79 627.92,-631.74 639.95,-628.71"/>
<polygon fill="midnightblue" stroke="midnightblue" points="500.99,-1080.3 503.66,-1090.55 507.96,-1080.87 500.99,-1080.3"/>
</g>
<!-- Node54 -->
<g id="node19" class="node">
<title>Node54</title>
<g id="a_node19"><a xlink:href="class_c_p_s_1_1_d_p_1_1_ph3_1_1_resistor.html" target="_top" xlink:title=" ">
<polygon fill="none" stroke="black" points="641.5,-578.5 641.5,-597.5 762.5,-597.5 762.5,-578.5 641.5,-578.5"/>
<text text-anchor="middle" x="702" y="-585.5" font-family="Helvetica,sans-Serif" font-size="10.00">CPS::DP::Ph3::Resistor</text>
</a>
</g>
</g>
<!-- Node2&#45;&gt;Node54 -->
<g id="edge18" class="edge">
<title>Node2&#45;&gt;Node54</title>
<path fill="none" stroke="midnightblue" d="M503.96,-1080.7C509.83,-988.33 535.02,-671.33 607,-607 616.56,-598.46 628.87,-593.33 641.42,-590.35"/>
<polygon fill="midnightblue" stroke="midnightblue" points="500.46,-1080.62 503.34,-1090.82 507.44,-1081.05 500.46,-1080.62"/>
</g>
<!-- Node55 -->
<g id="node20" class="node">
<title>Node55</title>
<g id="a_node20"><a xlink:href="class_c_p_s_1_1_d_p_1_1_ph3_1_1_series_resistor.html" target="_top" xlink:title=" ">
<polygon fill="none" stroke="black" points="627.5,-540.5 627.5,-559.5 776.5,-559.5 776.5,-540.5 627.5,-540.5"/>
<text text-anchor="middle" x="702" y="-547.5" font-family="Helvetica,sans-Serif" font-size="10.00">CPS::DP::Ph3::SeriesResistor</text>
</a>
</g>
</g>
<!-- Node2&#45;&gt;Node55 -->
<g id="edge19" class="edge">
<title>Node2&#45;&gt;Node55</title>
<path fill="none" stroke="midnightblue" d="M505.75,-1080.63C515.24,-1008.78 544.94,-798.07 588,-627 594.62,-600.69 586.73,-587.03 607,-569 612.85,-563.8 619.72,-559.87 627.03,-556.92"/>
<polygon fill="midnightblue" stroke="midnightblue" points="502.23,-1080.57 504.41,-1090.94 509.17,-1081.48 502.23,-1080.57"/>
</g>
<!-- Node56 -->
<g id="node21" class="node">
<title>Node56</title>
<g id="a_node21"><a xlink:href="class_c_p_s_1_1_d_p_1_1_ph3_1_1_series_switch.html" target="_top" xlink:title="Dynamic phasor three&#45;phase switch.">
<polygon fill="none" stroke="black" points="631.5,-1727.5 631.5,-1746.5 772.5,-1746.5 772.5,-1727.5 631.5,-1727.5"/>
<text text-anchor="middle" x="702" y="-1734.5" font-family="Helvetica,sans-Serif" font-size="10.00">CPS::DP::Ph3::SeriesSwitch</text>
</a>
</g>
</g>
<!-- Node2&#45;&gt;Node56 -->
<g id="edge20" class="edge">
<title>Node2&#45;&gt;Node56</title>
<path fill="none" stroke="midnightblue" d="M504.34,-1131.11C510.61,-1210.93 533.81,-1465.53 588,-1669 594.01,-1691.57 589.14,-1702.95 607,-1718 614,-1723.9 622.34,-1728.14 631.1,-1731.17"/>
<polygon fill="midnightblue" stroke="midnightblue" points="507.82,-1130.74 503.57,-1121.03 500.84,-1131.27 507.82,-1130.74"/>
</g>
<!-- Node57 -->
<g id="node22" class="node">
<title>Node57</title>
<g id="a_node22"><a xlink:href="class_c_p_s_1_1_d_p_1_1_ph3_1_1_synchron_generator_d_q.html" target="_top" xlink:title="Synchronous generator model in dq&#45;reference frame.">
<polygon fill="none" stroke="red" points="607,-1689.5 607,-1708.5 797,-1708.5 797,-1689.5 607,-1689.5"/>
<text text-anchor="middle" x="702" y="-1696.5" font-family="Helvetica,sans-Serif" font-size="10.00">CPS::DP::Ph3::SynchronGeneratorDQ</text>
</a>
</g>
</g>
<!-- Node2&#45;&gt;Node57 -->
<g id="edge21" class="edge">
<title>Node2&#45;&gt;Node57</title>
<path fill="none" stroke="midnightblue" d="M503.27,-1131.32C506.9,-1232.15 525.67,-1603.3 607,-1680 611,-1683.77 615.53,-1686.88 620.38,-1689.45"/>
<polygon fill="midnightblue" stroke="midnightblue" points="506.77,-1131.03 502.93,-1121.15 499.77,-1131.27 506.77,-1131.03"/>
</g>
<!-- Node60 -->
<g id="node23" class="node">
<title>Node60</title>
<g id="a_node23"><a xlink:href="class_c_p_s_1_1_d_p_1_1_ph3_1_1_voltage_source.html" target="_top" xlink:title="Ideal Voltage source model.">
<polygon fill="none" stroke="black" points="627,-1651.5 627,-1670.5 777,-1670.5 777,-1651.5 627,-1651.5"/>
<text text-anchor="middle" x="702" y="-1658.5" font-family="Helvetica,sans-Serif" font-size="10.00">CPS::DP::Ph3::VoltageSource</text>
</a>
</g>
</g>
<!-- Node2&#45;&gt;Node60 -->
<g id="edge22" class="edge">
<title>Node2&#45;&gt;Node60</title>
<path fill="none" stroke="midnightblue" d="M505.19,-1131.47C513.26,-1204.42 539.77,-1419.97 588,-1593 594.27,-1615.5 589.14,-1626.95 607,-1642 612.86,-1646.93 619.64,-1650.71 626.84,-1653.58"/>
<polygon fill="midnightblue" stroke="midnightblue" points="508.65,-1130.95 504.09,-1121.39 501.69,-1131.71 508.65,-1130.95"/>
</g>
<!-- Node61 -->
<g id="node24" class="node">
<title>Node61</title>
<g id="a_node24"><a xlink:href="class_c_p_s_1_1_s_p_1_1_ph1_1_1_capacitor.html" target="_top" xlink:title=" ">
<polygon fill="none" stroke="black" points="639.5,-1613.5 639.5,-1632.5 764.5,-1632.5 764.5,-1613.5 639.5,-1613.5"/>
<text text-anchor="middle" x="702" y="-1620.5" font-family="Helvetica,sans-Serif" font-size="10.00">CPS::SP::Ph1::Capacitor</text>
</a>
</g>
</g>
<!-- Node2&#45;&gt;Node61 -->
<g id="edge23" class="edge">
<title>Node2&#45;&gt;Node61</title>
<path fill="none" stroke="midnightblue" d="M504.06,-1131.15C510.29,-1222.99 536.55,-1538.27 607,-1604 615.89,-1612.29 627.35,-1617.4 639.19,-1620.46"/>
<polygon fill="midnightblue" stroke="midnightblue" points="507.55,-1130.84 503.4,-1121.09 500.56,-1131.3 507.55,-1130.84"/>
</g>
<!-- Node62 -->
<g id="node25" class="node">
<title>Node62</title>
<g id="a_node25"><a xlink:href="class_c_p_s_1_1_s_p_1_1_ph1_1_1_inductor.html" target="_top" xlink:title="Static phasor inductor model.">
<polygon fill="none" stroke="black" points="641,-1575.5 641,-1594.5 763,-1594.5 763,-1575.5 641,-1575.5"/>
<text text-anchor="middle" x="702" y="-1582.5" font-family="Helvetica,sans-Serif" font-size="10.00">CPS::SP::Ph1::Inductor</text>
</a>
</g>
</g>
<!-- Node2&#45;&gt;Node62 -->
<g id="edge24" class="edge">
<title>Node2&#45;&gt;Node62</title>
<path fill="none" stroke="midnightblue" d="M506.06,-1131.49C515.55,-1196.98 543.84,-1376.07 588,-1520 594.49,-1541.15 589.93,-1551.93 607,-1566 616.64,-1573.94 628.69,-1578.86 640.93,-1581.85"/>
<polygon fill="midnightblue" stroke="midnightblue" points="509.48,-1130.7 504.6,-1121.3 502.55,-1131.69 509.48,-1130.7"/>
</g>
<!-- Node63 -->
<g id="node26" class="node">
<title>Node63</title>
<g id="a_node26"><a xlink:href="class_c_p_s_1_1_s_p_1_1_ph1_1_1_resistor.html" target="_top" xlink:title="Static phasor resistor model.">
<polygon fill="none" stroke="black" points="642.5,-1537.5 642.5,-1556.5 761.5,-1556.5 761.5,-1537.5 642.5,-1537.5"/>
<text text-anchor="middle" x="702" y="-1544.5" font-family="Helvetica,sans-Serif" font-size="10.00">CPS::SP::Ph1::Resistor</text>
</a>
</g>
</g>
<!-- Node2&#45;&gt;Node63 -->
<g id="edge25" class="edge">
<title>Node2&#45;&gt;Node63</title>
<path fill="none" stroke="midnightblue" d="M504.9,-1131.19C513.34,-1214.1 544.62,-1476.2 607,-1528 616.99,-1536.3 629.62,-1541.3 642.35,-1544.25"/>
<polygon fill="midnightblue" stroke="midnightblue" points="508.37,-1130.74 503.9,-1121.14 501.4,-1131.43 508.37,-1130.74"/>
</g>
<!-- Node64 -->
<g id="node27" class="node">
<title>Node64</title>
<g id="a_node27"><a xlink:href="class_c_p_s_1_1_s_p_1_1_ph1_1_1_switch.html" target="_top" xlink:title="Dynamic phasor switch.">
<polygon fill="none" stroke="black" points="647,-1499.5 647,-1518.5 757,-1518.5 757,-1499.5 647,-1499.5"/>
<text text-anchor="middle" x="702" y="-1506.5" font-family="Helvetica,sans-Serif" font-size="10.00">CPS::SP::Ph1::Switch</text>
</a>
</g>
</g>
<!-- Node2&#45;&gt;Node64 -->
<g id="edge26" class="edge">
<title>Node2&#45;&gt;Node64</title>
<path fill="none" stroke="midnightblue" d="M505.61,-1131.4C515.73,-1209.44 550.34,-1443.3 607,-1490 618.18,-1499.21 632.62,-1504.36 646.8,-1507.14"/>
<polygon fill="midnightblue" stroke="midnightblue" points="509.03,-1130.53 504.3,-1121.06 502.09,-1131.42 509.03,-1130.53"/>
</g>
<!-- Node65 -->
<g id="node28" class="node">
<title>Node65</title>
<g id="a_node28"><a xlink:href="class_c_p_s_1_1_s_p_1_1_ph1_1_1_voltage_source.html" target="_top" xlink:title="Ideal Voltage source model.">
<polygon fill="none" stroke="black" points="628,-1461.5 628,-1480.5 776,-1480.5 776,-1461.5 628,-1461.5"/>
<text text-anchor="middle" x="702" y="-1468.5" font-family="Helvetica,sans-Serif" font-size="10.00">CPS::SP::Ph1::VoltageSource</text>
</a>
</g>
</g>
<!-- Node2&#45;&gt;Node65 -->
<g id="edge27" class="edge">
<title>Node2&#45;&gt;Node65</title>
<path fill="none" stroke="midnightblue" d="M506.37,-1131.33C518.02,-1204.09 555.23,-1411.14 607,-1452 613.14,-1456.85 620.2,-1460.56 627.62,-1463.38"/>
<polygon fill="midnightblue" stroke="midnightblue" points="509.79,-1130.56 504.77,-1121.23 502.87,-1131.65 509.79,-1130.56"/>
</g>
<!-- Node66 -->
<g id="node29" class="node">
<title>Node66</title>
<g id="a_node29"><a xlink:href="class_c_p_s_1_1_s_p_1_1_ph1_1_1var_res_switch.html" target="_top" xlink:title="Switch with variable resistance to avoid numerical oscillations, when an inductive current is suddenl...">
<polygon fill="none" stroke="black" points="631,-1423.5 631,-1442.5 773,-1442.5 773,-1423.5 631,-1423.5"/>
<text text-anchor="middle" x="702" y="-1430.5" font-family="Helvetica,sans-Serif" font-size="10.00">CPS::SP::Ph1::varResSwitch</text>
</a>
</g>
</g>
<!-- Node2&#45;&gt;Node66 -->
<g id="edge28" class="edge">
<title>Node2&#45;&gt;Node66</title>
<path fill="none" stroke="midnightblue" d="M502.52,-1131.12C504.05,-1191.12 517.08,-1343.03 607,-1414 614.06,-1419.57 622.32,-1423.64 630.97,-1426.58"/>
<polygon fill="midnightblue" stroke="midnightblue" points="506.01,-1130.97 502.35,-1121.03 499.01,-1131.08 506.01,-1130.97"/>
</g>
<!-- Node67 -->
<g id="node30" class="node">
<title>Node67</title>
<g id="a_node30"><a xlink:href="class_c_p_s_1_1_s_p_1_1_ph3_1_1_capacitor.html" target="_top" xlink:title="Capacitor model.">
<polygon fill="none" stroke="black" points="639.5,-1385.5 639.5,-1404.5 764.5,-1404.5 764.5,-1385.5 639.5,-1385.5"/>
<text text-anchor="middle" x="702" y="-1392.5" font-family="Helvetica,sans-Serif" font-size="10.00">CPS::SP::Ph3::Capacitor</text>
</a>
</g>
</g>
<!-- Node2&#45;&gt;Node67 -->
<g id="edge29" class="edge">
<title>Node2&#45;&gt;Node67</title>
<path fill="none" stroke="midnightblue" d="M504.15,-1131.47C509.15,-1185.95 529.03,-1313.88 607,-1376 616.25,-1383.37 627.59,-1388.11 639.17,-1391.11"/>
<polygon fill="midnightblue" stroke="midnightblue" points="507.62,-1130.98 503.31,-1121.3 500.64,-1131.56 507.62,-1130.98"/>
</g>
<!-- Node68 -->
<g id="node31" class="node">
<title>Node68</title>
<g id="a_node31"><a xlink:href="class_c_p_s_1_1_s_p_1_1_ph3_1_1_inductor.html" target="_top" xlink:title="Inductor.">
<polygon fill="none" stroke="black" points="641,-1347.5 641,-1366.5 763,-1366.5 763,-1347.5 641,-1347.5"/>
<text text-anchor="middle" x="702" y="-1354.5" font-family="Helvetica,sans-Serif" font-size="10.00">CPS::SP::Ph3::Inductor</text>
</a>
</g>
</g>
<!-- Node2&#45;&gt;Node68 -->
<g id="edge30" class="edge">
<title>Node2&#45;&gt;Node68</title>
<path fill="none" stroke="midnightblue" d="M506.1,-1131.01C514.44,-1179.22 539.78,-1284.95 607,-1338 616.67,-1345.63 628.61,-1350.44 640.69,-1353.42"/>
<polygon fill="midnightblue" stroke="midnightblue" points="509.55,-1130.41 504.49,-1121.1 502.64,-1131.54 509.55,-1130.41"/>
</g>
<!-- Node69 -->
<g id="node32" class="node">
<title>Node69</title>
<g id="a_node32"><a xlink:href="class_c_p_s_1_1_s_p_1_1_ph3_1_1_resistor.html" target="_top" xlink:title=" ">
<polygon fill="none" stroke="black" points="642.5,-1309.5 642.5,-1328.5 761.5,-1328.5 761.5,-1309.5 642.5,-1309.5"/>
<text text-anchor="middle" x="702" y="-1316.5" font-family="Helvetica,sans-Serif" font-size="10.00">CPS::SP::Ph3::Resistor</text>
</a>
</g>
</g>
<!-- Node2&#45;&gt;Node69 -->
<g id="edge31" class="edge">
<title>Node2&#45;&gt;Node69</title>
<path fill="none" stroke="midnightblue" d="M508.46,-1130.68C519.93,-1172.56 549.21,-1257.15 607,-1300 617.16,-1307.54 629.58,-1312.27 642.01,-1315.21"/>
<polygon fill="midnightblue" stroke="midnightblue" points="511.85,-1129.79 505.92,-1121.01 505.08,-1131.57 511.85,-1129.79"/>
</g>
<!-- Node70 -->
<g id="node33" class="node">
<title>Node70</title>
<g id="a_node33"><a xlink:href="class_c_p_s_1_1_s_p_1_1_ph3_1_1_voltage_source.html" target="_top" xlink:title="Ideal Voltage source model.">
<polygon fill="none" stroke="black" points="628,-1271.5 628,-1290.5 776,-1290.5 776,-1271.5 628,-1271.5"/>
<text text-anchor="middle" x="702" y="-1278.5" font-family="Helvetica,sans-Serif" font-size="10.00">CPS::SP::Ph3::VoltageSource</text>
</a>
</g>
</g>
<!-- Node2&#45;&gt;Node70 -->
<g id="edge32" class="edge">
<title>Node2&#45;&gt;Node70</title>
<path fill="none" stroke="midnightblue" d="M511.94,-1130.86C526.64,-1165.99 558.43,-1229.48 607,-1262 613.36,-1266.26 620.48,-1269.6 627.86,-1272.22"/>
<polygon fill="midnightblue" stroke="midnightblue" points="515.09,-1129.3 508.09,-1121.35 508.6,-1131.93 515.09,-1129.3"/>
</g>
<!-- Node72 -->
<g id="node35" class="node">
<title>Node72</title>
<g id="a_node35"><a xlink:href="class_c_p_s_1_1_base_1_1_reduced_order_synchron_generator.html" target="_top" xlink:title=" ">
<polygon fill="none" stroke="red" points="612.5,-278 612.5,-308 791.5,-308 791.5,-278 612.5,-278"/>
<text text-anchor="start" x="620.5" y="-296" font-family="Helvetica,sans-Serif" font-size="10.00">CPS::Base::ReducedOrderSynchron</text>
<text text-anchor="middle" x="702" y="-285" font-family="Helvetica,sans-Serif" font-size="10.00">Generator&lt; Real &gt;</text>
</a>
</g>
</g>
<!-- Node71&#45;&gt;Node72 -->
<g id="edge34" class="edge">
<title>Node71&#45;&gt;Node72</title>
<path fill="none" stroke="midnightblue" d="M580.27,-293C590.84,-293 601.75,-293 612.49,-293"/>
<polygon fill="midnightblue" stroke="midnightblue" points="580.26,-289.5 570.26,-293 580.26,-296.5 580.26,-289.5"/>
</g>
<!-- Node80 -->
<g id="node36" class="node">
<title>Node80</title>
<g id="a_node36"><a xlink:href="class_c_p_s_1_1_composite_power_comp.html" target="_top" xlink:title=" ">
<polygon fill="none" stroke="red" points="629,-229 629,-259 775,-259 775,-229 629,-229"/>
<text text-anchor="start" x="637" y="-247" font-family="Helvetica,sans-Serif" font-size="10.00">CPS::CompositePowerComp</text>
<text text-anchor="middle" x="702" y="-236" font-family="Helvetica,sans-Serif" font-size="10.00">&lt; Real &gt;</text>
</a>
</g>
</g>
<!-- Node71&#45;&gt;Node80 -->
<g id="edge35" class="edge">
<title>Node71&#45;&gt;Node80</title>
<path fill="none" stroke="midnightblue" d="M573.3,-275.52C595.18,-270.12 619.07,-264.22 640.21,-259.01"/>
<polygon fill="midnightblue" stroke="midnightblue" points="572.28,-272.17 563.41,-277.97 573.95,-278.97 572.28,-272.17"/>
</g>
<!-- Node90 -->
<g id="node37" class="node">
<title>Node90</title>
<g id="a_node37"><a xlink:href="class_c_p_s_1_1_e_m_t_1_1_ph1_1_1_capacitor.html" target="_top" xlink:title="Capacitor model.">
<polygon fill="none" stroke="black" points="635.5,-190.5 635.5,-209.5 768.5,-209.5 768.5,-190.5 635.5,-190.5"/>
<text text-anchor="middle" x="702" y="-197.5" font-family="Helvetica,sans-Serif" font-size="10.00">CPS::EMT::Ph1::Capacitor</text>
</a>
</g>
</g>
<!-- Node71&#45;&gt;Node90 -->
<g id="edge36" class="edge">
<title>Node71&#45;&gt;Node90</title>
<path fill="none" stroke="midnightblue" d="M526.98,-271.15C547.09,-254.37 577.05,-231.94 607,-219 616.02,-215.1 625.87,-211.99 635.7,-209.52"/>
<polygon fill="midnightblue" stroke="midnightblue" points="524.6,-268.58 519.25,-277.73 529.14,-273.91 524.6,-268.58"/>
</g>
<!-- Node91 -->
<g id="node38" class="node">
<title>Node91</title>
<g id="a_node38"><a xlink:href="class_c_p_s_1_1_e_m_t_1_1_ph1_1_1_current_source.html" target="_top" xlink:title="Ideal current source model.">
<polygon fill="none" stroke="black" points="623.5,-152.5 623.5,-171.5 780.5,-171.5 780.5,-152.5 623.5,-152.5"/>
<text text-anchor="middle" x="702" y="-159.5" font-family="Helvetica,sans-Serif" font-size="10.00">CPS::EMT::Ph1::CurrentSource</text>
</a>
</g>
</g>
<!-- Node71&#45;&gt;Node91 -->
<g id="edge37" class="edge">
<title>Node71&#45;&gt;Node91</title>
<path fill="none" stroke="midnightblue" d="M517.75,-269.37C535.82,-243.43 568.38,-202.59 607,-181 613.98,-177.1 621.64,-174 629.49,-171.52"/>
<polygon fill="midnightblue" stroke="midnightblue" points="514.7,-267.63 511.98,-277.87 520.5,-271.56 514.7,-267.63"/>
</g>
<!-- Node92 -->
<g id="node39" class="node">
<title>Node92</title>
<g id="a_node39"><a xlink:href="class_c_p_s_1_1_e_m_t_1_1_ph1_1_1_inductor.html" target="_top" xlink:title="Inductor.">
<polygon fill="none" stroke="black" points="637,-114.5 637,-133.5 767,-133.5 767,-114.5 637,-114.5"/>
<text text-anchor="middle" x="702" y="-121.5" font-family="Helvetica,sans-Serif" font-size="10.00">CPS::EMT::Ph1::Inductor</text>
</a>
</g>
</g>
<!-- Node71&#45;&gt;Node92 -->
<g id="edge38" class="edge">
<title>Node71&#45;&gt;Node92</title>
<path fill="none" stroke="midnightblue" d="M512.44,-268.57C527.56,-234.68 559.67,-174.07 607,-143 615.91,-137.15 626.24,-133.04 636.72,-130.16"/>
<polygon fill="midnightblue" stroke="midnightblue" points="509.22,-267.2 508.46,-277.77 515.64,-269.98 509.22,-267.2"/>
</g>
<!-- Node93 -->
<g id="node40" class="node">
<title>Node93</title>
<g id="a_node40"><a xlink:href="class_c_p_s_1_1_e_m_t_1_1_ph1_1_1_resistor.html" target="_top" xlink:title="EMT Resistor.">
<polygon fill="none" stroke="black" points="638.5,-76.5 638.5,-95.5 765.5,-95.5 765.5,-76.5 638.5,-76.5"/>
<text text-anchor="middle" x="702" y="-83.5" font-family="Helvetica,sans-Serif" font-size="10.00">CPS::EMT::Ph1::Resistor</text>
</a>
</g>
</g>
<!-- Node71&#45;&gt;Node93 -->
<g id="edge39" class="edge">
<title>Node71&#45;&gt;Node93</title>
<path fill="none" stroke="midnightblue" d="M508.95,-268.21C520.94,-227.31 550.71,-146.17 607,-105 616.14,-98.32 627.05,-93.84 638.16,-90.88"/>
<polygon fill="midnightblue" stroke="midnightblue" points="505.55,-267.34 506.21,-277.92 512.29,-269.24 505.55,-267.34"/>
</g>
<!-- Node94 -->
<g id="node41" class="node">
<title>Node94</title>
<g id="a_node41"><a xlink:href="class_c_p_s_1_1_e_m_t_1_1_ph1_1_1_switch.html" target="_top" xlink:title="One phase EMT switch.">
<polygon fill="none" stroke="black" points="642.5,-38.5 642.5,-57.5 761.5,-57.5 761.5,-38.5 642.5,-38.5"/>
<text text-anchor="middle" x="702" y="-45.5" font-family="Helvetica,sans-Serif" font-size="10.00">CPS::EMT::Ph1::Switch</text>
</a>
</g>
</g>
<!-- Node71&#45;&gt;Node94 -->
<g id="edge40" class="edge">
<title>Node71&#45;&gt;Node94</title>
<path fill="none" stroke="midnightblue" d="M506.55,-267.71C515.52,-220.38 541.7,-118.58 607,-67 617.06,-59.05 629.57,-54.17 642.15,-51.22"/>
<polygon fill="midnightblue" stroke="midnightblue" points="503.07,-267.26 504.75,-277.73 509.96,-268.5 503.07,-267.26"/>
</g>
<!-- Node95 -->
<g id="node42" class="node">
<title>Node95</title>
<g id="a_node42"><a xlink:href="class_c_p_s_1_1_e_m_t_1_1_ph1_1_1_voltage_source.html" target="_top" xlink:title="Ideal Voltage source model.">
<polygon fill="none" stroke="black" points="624,-0.5 624,-19.5 780,-19.5 780,-0.5 624,-0.5"/>
<text text-anchor="middle" x="702" y="-7.5" font-family="Helvetica,sans-Serif" font-size="10.00">CPS::EMT::Ph1::VoltageSource</text>
</a>
</g>
</g>
<!-- Node71&#45;&gt;Node95 -->
<g id="edge41" class="edge">
<title>Node71&#45;&gt;Node95</title>
<path fill="none" stroke="midnightblue" d="M504.68,-267.69C510.69,-214.62 532.35,-91.45 607,-29 611.98,-24.83 617.62,-21.5 623.62,-18.83"/>
<polygon fill="midnightblue" stroke="midnightblue" points="501.17,-267.6 503.63,-277.91 508.14,-268.32 501.17,-267.6"/>
</g>
<!-- Node96 -->
<g id="node43" class="node">
<title>Node96</title>
<g id="a_node43"><a xlink:href="class_c_p_s_1_1_e_m_t_1_1_ph1_1_1_voltage_source_norton.html" target="_top" xlink:title="Voltage source as Norton equivalent.">
<polygon fill="none" stroke="black" points="624,-491 624,-521 780,-521 780,-491 624,-491"/>
<text text-anchor="start" x="632" y="-509" font-family="Helvetica,sans-Serif" font-size="10.00">CPS::EMT::Ph1::VoltageSource</text>
<text text-anchor="middle" x="702" y="-498" font-family="Helvetica,sans-Serif" font-size="10.00">Norton</text>
</a>
</g>
</g>
<!-- Node71&#45;&gt;Node96 -->
<g id="edge42" class="edge">
<title>Node71&#45;&gt;Node96</title>
<path fill="none" stroke="midnightblue" d="M509.32,-317.72C521.78,-358.17 552.12,-438.26 607,-481 612.06,-484.94 617.69,-488.27 623.61,-491.07"/>
<polygon fill="midnightblue" stroke="midnightblue" points="512.67,-316.7 506.47,-308.11 505.96,-318.7 512.67,-316.7"/>
</g>
<!-- Node97 -->
<g id="node44" class="node">
<title>Node97</title>
<g id="a_node44"><a xlink:href="class_c_p_s_1_1_e_m_t_1_1_ph3_1_1_av_volt_source_inverter_state_space.html" target="_top" xlink:title="average inverter model with LC filter">
<polygon fill="none" stroke="black" points="626.5,-442 626.5,-472 777.5,-472 777.5,-442 626.5,-442"/>
<text text-anchor="start" x="634.5" y="-460" font-family="Helvetica,sans-Serif" font-size="10.00">CPS::EMT::Ph3::AvVoltSource</text>
<text text-anchor="middle" x="702" y="-449" font-family="Helvetica,sans-Serif" font-size="10.00">InverterStateSpace</text>
</a>
</g>
</g>
<!-- Node71&#45;&gt;Node97 -->
<g id="edge43" class="edge">
<title>Node71&#45;&gt;Node97</title>
<path fill="none" stroke="midnightblue" d="M514.13,-317.12C530.48,-348.42 563.21,-402.49 607,-432 612.88,-435.96 619.36,-439.3 626.09,-442.11"/>
<polygon fill="midnightblue" stroke="midnightblue" points="517.25,-315.52 509.59,-308.19 511.01,-318.69 517.25,-315.52"/>
</g>
<!-- Node98 -->
<g id="node45" class="node">
<title>Node98</title>
<g id="a_node45"><a xlink:href="class_c_p_s_1_1_e_m_t_1_1_ph3_1_1_capacitor.html" target="_top" xlink:title="Capacitor model.">
<polygon fill="none" stroke="black" points="635.5,-403.5 635.5,-422.5 768.5,-422.5 768.5,-403.5 635.5,-403.5"/>
<text text-anchor="middle" x="702" y="-410.5" font-family="Helvetica,sans-Serif" font-size="10.00">CPS::EMT::Ph3::Capacitor</text>
</a>
</g>
</g>
<!-- Node71&#45;&gt;Node98 -->
<g id="edge44" class="edge">
<title>Node71&#45;&gt;Node98</title>
<path fill="none" stroke="midnightblue" d="M519.75,-316.12C538.54,-339.55 570.8,-374.97 607,-394 615.7,-398.57 625.38,-402.04 635.12,-404.68"/>
<polygon fill="midnightblue" stroke="midnightblue" points="522.38,-313.8 513.46,-308.08 516.87,-318.11 522.38,-313.8"/>
</g>
<!-- Node99 -->
<g id="node46" class="node">
<title>Node99</title>
<g id="a_node46"><a xlink:href="class_c_p_s_1_1_e_m_t_1_1_ph3_1_1_current_source.html" target="_top" xlink:title="Ideal current source model.">
<polygon fill="none" stroke="black" points="623.5,-365.5 623.5,-384.5 780.5,-384.5 780.5,-365.5 623.5,-365.5"/>
<text text-anchor="middle" x="702" y="-372.5" font-family="Helvetica,sans-Serif" font-size="10.00">CPS::EMT::Ph3::CurrentSource</text>
</a>
</g>
</g>
<!-- Node71&#45;&gt;Node99 -->
<g id="edge45" class="edge">
<title>Node71&#45;&gt;Node99</title>
<path fill="none" stroke="midnightblue" d="M531.05,-313.91C551.31,-327.79 579.65,-345.36 607,-356 616.93,-359.86 627.77,-362.98 638.45,-365.49"/>
<polygon fill="midnightblue" stroke="midnightblue" points="532.82,-310.88 522.62,-308.02 528.81,-316.62 532.82,-310.88"/>
</g>
<!-- Node100 -->
<g id="node47" class="node">
<title>Node100</title>
<g id="a_node47"><a xlink:href="class_c_p_s_1_1_e_m_t_1_1_ph3_1_1_inductor.html" target="_top" xlink:title="Inductor.">
<polygon fill="none" stroke="black" points="637,-327.5 637,-346.5 767,-346.5 767,-327.5 637,-327.5"/>
<text text-anchor="middle" x="702" y="-334.5" font-family="Helvetica,sans-Serif" font-size="10.00">CPS::EMT::Ph3::Inductor</text>
</a>
</g>
</g>
<!-- Node71&#45;&gt;Node100 -->
<g id="edge46" class="edge">
<title>Node71&#45;&gt;Node100</title>
<path fill="none" stroke="midnightblue" d="M577.1,-310.29C587.15,-312.57 597.32,-314.86 607,-317 622.8,-320.5 640.12,-324.21 655.55,-327.48"/>
<polygon fill="midnightblue" stroke="midnightblue" points="577.65,-306.82 567.13,-308.01 576.1,-313.65 577.65,-306.82"/>
</g>
<!-- Node116&#45;&gt;Node2 -->
<g id="edge49" class="edge">
<title>Node116&#45;&gt;Node2</title>
<path fill="none" stroke="orange" stroke-dasharray="5,2" d="M319.89,-892.91C352.17,-897.59 388.24,-907.75 415,-929 468.71,-971.66 490.79,-1056.45 497.79,-1090.91"/>
<polygon fill="orange" stroke="orange" points="319.92,-889.38 309.55,-891.57 319.02,-896.32 319.92,-889.38"/>
<text text-anchor="middle" x="385.5" y="-932" font-family="Helvetica,sans-Serif" font-size="10.00"> &lt; Complex &gt;</text>
</g>
<!-- Node116&#45;&gt;Node71 -->
<g id="edge50" class="edge">
<title>Node116&#45;&gt;Node71</title>
<path fill="none" stroke="orange" stroke-dasharray="5,2" d="M319.29,-877.33C326.11,-874.08 332.5,-870.03 338,-865 425.22,-785.22 486.43,-390.47 498.37,-308.08"/>
<polygon fill="orange" stroke="orange" points="317.66,-874.22 309.77,-881.28 320.35,-880.68 317.66,-874.22"/>
<text text-anchor="middle" x="385.5" y="-840" font-family="Helvetica,sans-Serif" font-size="10.00"> &lt; Real &gt;</text>
</g>
</g>
</svg>
